<svg version="1.1" id="Layer_1" xmlns="http://www.w3.org/2000/svg" xmlns:xlink="http://www.w3.org/1999/xlink" x="0px" y="0px"
	 width="100%" viewBox="0 0 129 128" enable-background="new 0 0 129 128" xml:space="preserve">
<path fill="#422C8E" opacity="1.000000" stroke="none" 
	d="
M79.000000,129.000000 
	C53.666668,129.000000 28.833149,128.957443 4.000284,129.065399 
	C1.499360,129.076263 0.930376,128.499771 0.935936,125.999855 
	C1.026385,85.333397 1.026381,44.666611 0.935937,4.000143 
	C0.930377,1.500242 1.500252,0.930454 4.000141,0.935955 
	C44.999943,1.026173 86.000061,1.026173 126.999863,0.935955 
	C129.499756,0.930454 130.069626,1.500242 130.064072,4.000143 
	C129.973618,44.666611 129.973618,85.333397 130.064072,125.999855 
	C130.069626,128.499771 129.502228,129.087799 126.999443,129.066940 
	C111.167206,128.935028 95.333336,129.000000 79.000000,129.000000 
z"/>
<path fill="#F7F4FA" opacity="1.000000" stroke="none" 
	d="
M7.625210,81.353516 
	C7.879757,81.002434 8.148572,80.794510 8.140724,80.624771 
	C8.299552,79.773209 8.484331,79.096512 9.016077,78.266418 
	C9.326429,78.102661 9.187941,78.126076 9.207990,78.193382 
	C9.437469,77.187576 9.935686,76.261497 10.945754,75.307678 
	C11.232421,75.165283 11.125971,75.148018 11.124664,75.201920 
	C11.215826,74.884796 11.401096,74.570534 11.948298,74.202156 
	C12.202187,74.081940 12.064037,74.076019 12.064829,74.145157 
	C12.203775,73.863441 12.417285,73.568703 12.963257,73.207565 
	C16.163507,71.281265 18.969025,69.168289 22.804281,68.452423 
	C25.012012,66.844353 27.188307,67.721962 29.604939,67.883682 
	C32.253487,69.145416 34.557560,70.101135 37.200432,71.096939 
	C37.906483,71.182327 38.259487,71.279434 38.841629,71.559090 
	C39.354759,71.947548 39.553406,72.251671 39.818481,72.841812 
	C39.956039,73.081375 39.969650,73.005127 39.931358,72.999359 
	C40.172112,73.198402 40.431381,73.425766 40.837151,73.874451 
	C41.003433,74.073204 41.004280,73.999580 40.967472,73.999031 
	C41.204525,74.221008 41.462765,74.460396 41.846020,74.940506 
	C41.986633,75.164406 41.987602,75.014946 41.912872,75.015198 
	C42.173256,75.216797 42.471497,75.462845 42.820396,76.031845 
	C42.907913,76.310120 42.882679,76.131699 42.794640,76.150848 
	C42.902981,76.238060 43.099361,76.306122 43.229546,76.678825 
	C43.872925,78.809273 44.582493,80.635063 45.530563,82.686981 
	C47.187382,85.250763 46.258976,87.799629 46.146500,90.631615 
	C45.214760,92.590096 44.565907,94.166565 43.904732,96.065346 
	C43.864952,96.860298 43.684975,97.268677 43.074547,97.795044 
	C42.776451,97.968811 42.955082,97.949188 42.942764,97.860184 
	C42.810932,98.108459 42.623413,98.400894 42.159996,98.818451 
	C41.963272,98.995796 42.005512,99.002441 41.995277,98.983673 
	C41.497700,100.857201 40.503407,102.255630 38.110527,102.722229 
	C37.785416,102.836205 37.915516,102.858589 37.920563,102.792770 
	C37.659832,103.388962 37.043228,103.477371 36.208752,103.792038 
	C35.956165,103.961540 35.992840,104.002670 35.979294,103.980286 
	C34.341507,105.557129 32.180725,105.908325 29.701433,106.485535 
	C27.066547,106.463432 24.840605,106.585312 22.331638,106.108673 
	C14.562009,103.747429 10.140703,98.421852 6.964293,91.357796 
	C6.333627,87.861237 5.983018,84.741043 7.625210,81.353516 
z"/>
<path fill="#F8F6FB" opacity="1.000000" stroke="none" 
	d="
M50.763168,71.482742 
	C51.493172,70.416336 52.002205,69.272636 52.548595,69.254501 
	C61.952076,68.942352 71.725540,67.234856 79.403252,75.623703 
	C80.058174,76.020111 80.382385,76.340164 80.780518,77.022202 
	C80.890640,77.347076 80.905060,77.059006 80.760880,77.055939 
	C81.486641,77.333504 81.483871,78.159172 81.813263,79.194565 
	C81.899269,79.558014 81.793236,79.816002 81.897453,79.908676 
	C82.336945,80.309410 82.622086,80.657852 82.872375,81.392235 
	C82.895859,81.731209 82.801163,81.552185 82.713577,81.603012 
	C84.092674,85.911293 84.010376,90.137749 81.990509,94.607674 
	C80.226906,96.657852 78.845039,98.433411 77.427223,100.512131 
	C77.047028,101.070625 76.710381,101.335663 76.127045,101.806953 
	C75.873749,102.004807 76.024536,101.971939 76.008301,101.896500 
	C75.637604,102.391052 75.031174,102.483582 74.213074,102.812500 
	C73.971664,102.992546 73.996704,103.009819 73.998222,102.994751 
	C73.733658,103.284805 73.429947,103.546867 72.796432,103.826927 
	C72.499283,103.882294 72.211296,103.754623 72.096458,103.862411 
	C71.836372,104.112770 71.691124,104.255333 71.271774,104.263458 
	C64.573372,105.805794 58.188759,106.396324 51.647507,103.189514 
	C49.942654,102.226875 50.530495,100.901520 50.529186,99.845657 
	C50.517658,90.540276 50.423965,81.234489 50.763168,71.482742 
z"/>
<path fill="#F8F5FB" opacity="1.000000" stroke="none" 
	d="
M33.243134,60.474159 
	C31.581594,57.872616 30.026026,55.586369 28.713888,53.168037 
	C26.919544,49.860973 24.356302,48.429745 20.445629,49.608505 
	C20.884459,53.378704 20.368528,56.848751 20.022610,60.577621 
	C19.316494,60.867641 19.098562,61.022591 18.936897,61.515755 
	C18.627567,62.408417 17.981907,62.481503 17.089737,62.732948 
	C16.789810,62.823692 16.865376,62.846714 16.869385,62.807419 
	C14.924317,63.819782 13.601284,63.078632 12.573318,60.931103 
	C12.502996,60.571095 12.293343,60.736855 12.384048,60.834991 
	C10.445161,58.544243 11.725147,55.724171 11.567817,53.124046 
	C11.342065,49.393143 11.421005,45.633495 11.797247,41.455944 
	C12.027074,41.024597 12.201935,40.826614 12.107864,40.733910 
	C12.099046,40.165695 12.300893,39.746296 12.910826,39.178375 
	C13.202324,38.973743 13.055852,39.118328 13.129622,39.190075 
	C14.321811,36.877167 16.220579,36.824833 18.739670,37.621750 
	C19.569620,37.882881 20.006258,38.105980 20.673002,38.628159 
	C22.498133,40.575851 24.452631,40.394943 26.764690,39.937775 
	C28.779770,39.454861 29.622456,38.602783 28.416992,36.623226 
	C27.749950,36.047211 27.305866,35.665005 26.473965,35.308716 
	C24.427925,34.683704 22.703773,34.373878 20.935997,36.070133 
	C20.280146,36.621162 19.848753,36.858440 19.022915,37.149784 
	C16.926388,36.963001 15.016882,37.510193 13.213455,35.906555 
	C12.817502,35.235188 12.727005,34.803490 12.377286,34.160748 
	C11.063023,32.317894 10.851765,30.598660 11.869438,28.428635 
	C12.470428,27.727934 12.784591,27.380409 13.195669,26.812349 
	C13.275876,25.829380 13.679891,25.252617 14.389729,25.249784 
	C20.580355,25.225075 26.862848,23.865311 33.218845,26.743313 
	C33.792248,27.224621 34.032200,27.404224 34.615776,27.873739 
	C35.002377,28.494907 35.173450,28.734818 35.693062,28.944439 
	C36.180397,29.230124 36.440228,29.462671 36.839417,29.919479 
	C36.984905,30.136871 36.990582,30.014996 36.929619,30.012806 
	C37.189461,30.222216 37.477520,30.471636 37.787056,31.040779 
	C37.841263,31.322701 37.861122,31.107397 37.753063,31.104088 
	C38.488419,31.344429 38.480194,32.124031 38.784058,33.105858 
	C39.299862,38.208221 39.233624,42.846130 35.075195,46.216698 
	C33.500092,47.493382 34.491791,48.496395 35.245590,49.552082 
	C36.696209,51.583637 38.165955,53.601841 39.649948,55.609180 
	C41.213081,57.723579 41.655201,59.799366 39.259956,62.084778 
	C37.911221,62.906208 36.821091,63.061508 35.343582,62.253471 
	C34.994205,62.002449 34.999695,62.000305 34.999283,62.002914 
	C34.474564,61.593304 33.900936,61.240700 33.243134,60.474159 
z"/>
<path fill="#F7F4FA" opacity="1.000000" stroke="none" 
	d="
M101.352516,63.026146 
	C90.276276,62.341774 82.075584,48.467575 85.780479,37.463272 
	C88.898346,28.202562 99.192841,23.448120 108.837677,25.210527 
	C110.049347,25.145882 110.771103,25.501169 111.771515,25.964771 
	C112.008110,26.277088 111.945145,26.079762 111.847641,26.114677 
	C112.367317,26.352560 113.007614,26.486084 113.757202,27.049803 
	C115.206169,28.456633 116.497345,29.578939 118.064835,30.877941 
	C120.766594,35.801968 119.572304,38.166527 114.436417,37.989151 
	C114.227623,37.606148 114.199280,37.773197 114.283951,37.776154 
	C113.969048,37.819073 113.639992,37.691040 113.210861,37.149071 
	C112.965820,36.601433 112.796646,36.343128 112.302681,36.065674 
	C111.590210,35.535332 110.929222,35.515594 110.146423,35.048763 
	C104.185555,29.729059 96.861870,32.160629 93.277725,40.688713 
	C93.650352,42.413879 93.469261,43.815105 93.316559,45.604599 
	C93.975006,55.028809 106.434723,58.122856 111.863541,51.915249 
	C113.237030,50.344723 114.949356,49.281734 117.135796,50.247272 
	C119.214394,51.165192 119.245277,52.996525 118.928749,55.293121 
	C118.785912,56.060509 118.586151,56.388515 118.075577,56.838028 
	C117.833008,57.000126 117.995422,56.993382 117.991760,56.912189 
	C117.803444,57.150608 117.575470,57.435562 117.075134,57.838638 
	C116.846062,57.991405 116.992935,57.995686 116.994766,57.922241 
	C116.808853,58.158184 116.575821,58.427742 116.047821,58.768471 
	C112.788643,59.432312 111.065117,63.125023 107.214996,62.439316 
	C105.407616,64.332207 103.411720,63.187729 101.352516,63.026146 
z"/>
<path fill="#F9F6FC" opacity="1.000000" stroke="none" 
	d="
M56.306816,62.528908 
	C54.654724,61.984985 53.515598,61.433479 52.544228,60.063286 
	C50.669868,55.973202 51.857826,51.892326 51.758438,47.471756 
	C52.019531,46.573452 52.081455,46.103695 52.049187,45.288067 
	C50.969051,39.929195 51.748161,34.863449 51.514236,29.381586 
	C51.561256,28.305975 51.830383,27.801319 52.736137,27.229532 
	C53.454914,27.018463 53.720505,26.893511 54.021267,26.455494 
	C61.062187,23.993414 68.118706,24.984978 75.504822,25.943733 
	C76.804031,27.444494 77.483330,28.691507 77.172348,30.635193 
	C77.221344,31.202715 77.270477,31.403677 77.041878,31.743057 
	C76.764137,31.881475 76.929497,31.910368 76.939667,31.827055 
	C76.804016,32.122936 76.573631,32.442677 75.989609,32.818363 
	C75.709358,32.925915 75.931824,32.916931 75.923325,32.805931 
	C75.666267,33.278934 75.226097,33.543140 74.170685,33.492226 
	C71.776344,33.485775 69.804672,33.533642 67.426834,33.350578 
	C66.564415,33.188667 66.108849,33.139881 65.316658,33.169571 
	C64.280220,33.565208 63.474800,33.457428 62.524136,33.919861 
	C61.969677,34.297821 61.770245,34.615540 61.596161,35.273689 
	C61.492008,36.158928 61.496540,36.757141 61.621559,37.657669 
	C62.812904,39.582237 64.436234,38.851353 66.235641,38.800957 
	C67.556007,38.665466 68.464371,39.012714 69.751144,39.343136 
	C71.117447,39.698776 72.007515,40.142002 72.764145,41.332420 
	C72.846474,41.706718 72.758606,41.876064 72.836929,41.930519 
	C73.718216,42.677074 73.455795,43.576721 73.021591,44.672077 
	C72.340828,44.935360 72.132393,45.095413 71.984497,45.589516 
	C71.727394,46.221062 71.417107,46.565731 70.663528,46.884262 
	C70.313751,46.942310 70.197174,46.780506 70.112923,46.833839 
	C67.354233,48.121609 64.537453,47.251038 61.367905,47.248585 
	C58.814159,54.294266 59.303478,55.040462 66.170433,55.034378 
	C68.631912,55.032196 71.099472,54.925591 73.553452,55.061623 
	C77.358986,55.272575 79.051826,56.970829 77.037300,61.142822 
	C76.724380,62.738384 75.779427,62.701332 74.404869,62.523182 
	C69.331200,62.312496 64.691841,62.250793 59.604591,62.280510 
	C58.378922,62.802471 57.560059,62.931812 56.306816,62.528908 
z"/>
<path fill="#FAF8FC" opacity="1.000000" stroke="none" 
	d="
M92.743263,68.692078 
	C94.067078,68.838699 95.142952,68.887039 96.617538,68.862869 
	C102.131462,68.200233 107.258247,68.551575 112.615204,69.022774 
	C112.849075,69.444168 112.841087,69.229301 112.734558,69.243759 
	C113.052727,69.215599 113.402382,69.351265 113.721161,69.992455 
	C113.777710,70.290329 113.850029,70.163246 113.789978,70.204941 
	C115.793030,74.812012 114.726143,76.800423 110.029976,76.977867 
	C107.384178,77.077835 104.728043,76.905159 102.084846,77.033714 
	C100.276131,77.121674 97.667892,76.248070 97.572372,79.377777 
	C97.477966,82.471237 99.999260,81.865746 101.888245,81.991440 
	C104.157127,82.142410 106.572166,81.532326 108.745865,83.681175 
	C108.978752,84.046471 109.001877,84.000519 108.977814,84.009567 
	C111.127380,85.270073 110.603378,86.809166 109.124237,88.649399 
	C108.825615,88.880547 108.907425,88.906380 108.893921,88.865662 
	C108.256432,89.761467 107.317566,90.194000 105.873795,90.474686 
	C102.877205,90.829933 100.157829,89.789871 97.582642,91.588234 
	C97.529053,97.551788 97.529877,97.593323 103.044273,97.484108 
	C106.142723,97.422745 109.235901,97.468292 112.643097,97.861069 
	C113.950142,99.586700 115.687866,100.742783 114.650047,102.916206 
	C113.593727,105.128349 111.643723,105.289192 109.578537,105.161980 
	C103.319084,104.776390 96.996552,106.047440 90.401062,104.270676 
	C89.649239,103.955917 89.396706,103.704399 89.187897,103.055801 
	C89.097488,102.787300 89.014961,102.960190 89.101845,103.000519 
	C87.729057,98.860703 88.649452,94.545914 88.548531,90.299934 
	C88.402542,84.157860 88.416283,78.007423 88.795547,71.427254 
	C89.713036,70.220284 89.991447,68.942116 91.715172,68.954216 
	C92.182610,68.763100 92.338966,68.678444 92.743263,68.692078 
z"/>
<path fill="#473781" opacity="1.000000" stroke="none" 
	d="
M108.905457,83.726921 
	C106.148697,82.130440 102.932251,82.843346 99.902298,82.958336 
	C96.800941,83.076042 97.005356,81.342148 96.936203,79.237679 
	C96.863808,77.034775 97.318237,75.862595 99.880363,76.024086 
	C102.995125,76.220428 106.133629,76.001198 109.258705,76.082687 
	C112.804626,76.175171 114.591919,74.788116 113.803505,70.644058 
	C116.563484,70.602135 116.086830,72.585617 115.616661,74.364891 
	C115.068840,76.438004 113.832733,77.923958 111.440018,77.943527 
	C107.955490,77.972023 104.470528,77.973526 100.986580,78.034126 
	C100.005493,78.051201 98.723129,78.085472 98.604187,79.301445 
	C98.439697,80.983025 99.938911,80.819077 101.049232,80.982315 
	C103.769775,81.382301 107.227829,79.424858 108.905457,83.726921 
z"/>
<path fill="#58498B" opacity="1.000000" stroke="none" 
	d="
M33.943211,27.039949 
	C27.588528,24.740768 20.855167,25.559866 13.712490,26.411070 
	C13.631055,25.884926 13.945326,24.575333 14.311584,24.560627 
	C20.893719,24.296370 27.657646,22.440128 33.943211,27.039949 
z"/>
<path fill="#413374" opacity="1.000000" stroke="none" 
	d="
M75.623016,25.985073 
	C68.902855,26.225134 61.959568,26.159908 54.561111,26.171173 
	C61.109108,22.503082 68.233322,23.297316 75.623016,25.985073 
z"/>
<path fill="#2A176A" opacity="1.000000" stroke="none" 
	d="
M50.720963,71.365898 
	C51.038071,81.367081 51.109390,91.697922 51.270813,102.487823 
	C50.942150,102.261375 50.161098,101.576897 50.159142,100.890205 
	C50.131481,91.157936 49.488586,81.416206 50.720963,71.365898 
z"/>
<path fill="#2D1B6B" opacity="1.000000" stroke="none" 
	d="
M88.762962,71.317413 
	C89.061684,81.357643 89.099030,91.722069 89.162552,102.563667 
	C88.277748,102.181908 87.986687,101.084221 88.020500,99.884575 
	C88.285805,90.471992 87.377541,81.039383 88.762962,71.317413 
z"/>
<path fill="#3F2E7D" opacity="1.000000" stroke="none" 
	d="
M60.370411,37.962967 
	C60.236179,37.045437 60.204388,36.544430 60.220528,35.796021 
	C60.511265,35.025391 60.615452,34.475864 60.834667,33.559105 
	C62.128841,33.176929 63.169472,33.135715 64.595070,33.171272 
	C63.917946,34.326340 61.601078,34.811649 62.529427,36.905540 
	C63.332668,38.717247 65.074059,37.622208 66.453941,37.437832 
	C67.679153,37.274117 68.673096,37.810017 69.794289,39.123940 
	C68.940834,39.736382 67.880829,39.772404 66.424751,39.764999 
	C64.255791,38.946941 61.928459,40.467564 60.370411,37.962967 
z"/>
<path fill="#3A296C" opacity="1.000000" stroke="none" 
	d="
M112.698090,97.881302 
	C109.693832,98.109161 106.387108,97.704758 103.180779,98.104836 
	C98.103355,98.738388 96.028214,96.981079 97.109528,91.433762 
	C97.326645,90.833366 97.477646,90.682365 97.827293,90.782654 
	C97.196556,95.979935 99.405380,97.707390 104.148415,96.932762 
	C106.946358,96.475800 109.737518,96.639206 112.698090,97.881302 
z"/>
<path fill="#403178" opacity="1.000000" stroke="none" 
	d="
M114.320541,37.944115 
	C118.683876,37.876301 119.903816,35.737743 118.473129,31.389626 
	C122.182022,33.001183 120.492813,35.772953 119.086426,38.090950 
	C117.938065,39.983643 116.075829,40.835155 114.320541,37.944115 
z"/>
<path fill="#3C297D" opacity="1.000000" stroke="none" 
	d="
M55.878204,62.639320 
	C56.730927,62.304092 57.541233,62.258389 58.754120,62.292305 
	C63.122768,63.917133 67.369827,62.300011 71.366318,63.673157 
	C66.188217,63.397697 60.941303,65.242081 55.878204,62.639320 
z"/>
<path fill="#32216C" opacity="1.000000" stroke="none" 
	d="
M11.762913,41.341850 
	C12.124049,47.345371 12.221024,53.666142 12.396376,60.460022 
	C9.598905,57.984360 11.259824,54.324928 11.065598,51.007088 
	C10.884618,47.915527 10.490768,44.730450 11.762913,41.341850 
z"/>
<path fill="#2C1B63" opacity="1.000000" stroke="none" 
	d="
M52.046539,27.838825 
	C52.279026,33.412457 52.184750,38.720085 52.022728,44.484955 
	C49.922260,39.724533 51.464600,34.294758 51.018864,28.519939 
	C51.259647,27.895145 51.489712,27.733982 52.046539,27.838825 
z"/>
<path fill="#392E6B" opacity="1.000000" stroke="none" 
	d="
M19.206032,38.763290 
	C17.237009,38.400940 15.557797,37.749054 13.523558,39.160568 
	C13.122449,38.303139 13.041509,37.344452 12.934284,36.026329 
	C14.625158,36.077213 16.306229,37.105377 18.488537,35.848885 
	C19.677996,36.465961 19.780201,37.375530 19.206032,38.763290 
z"/>
<path fill="#473781" opacity="1.000000" stroke="none" 
	d="
M112.591690,69.110207 
	C107.905136,68.455505 102.902580,69.237007 97.475830,68.870377 
	C102.121162,67.581490 107.227066,67.458702 112.591690,69.110207 
z"/>
<path fill="#35246D" opacity="1.000000" stroke="none" 
	d="
M81.977119,94.725906 
	C83.015282,90.893265 83.389557,86.813797 82.653763,82.146667 
	C84.648163,86.005020 85.078934,90.321640 81.977119,94.725906 
z"/>
<path fill="#40307D" opacity="1.000000" stroke="none" 
	d="
M12.397421,60.949013 
	C13.556992,61.622128 14.710886,62.494816 16.563791,62.720222 
	C16.332214,64.156265 15.451070,65.120071 13.847775,64.587479 
	C12.303112,64.074364 12.072900,62.768242 12.397421,60.949013 
z"/>
<path fill="#2C1B63" opacity="1.000000" stroke="none" 
	d="
M51.701290,47.359665 
	C52.029789,51.023964 52.101967,55.004719 52.224922,59.436283 
	C49.892952,55.960033 51.071701,51.790676 51.701290,47.359665 
z"/>
<path fill="#3A2C6F" opacity="1.000000" stroke="none" 
	d="
M19.933102,60.600304 
	C19.767265,57.507843 19.906206,54.170921 20.154423,50.379711 
	C22.367949,53.407463 20.901665,56.880657 19.933102,60.600304 
z"/>
<path fill="#372474" opacity="1.000000" stroke="none" 
	d="
M7.537259,81.157013 
	C7.262786,84.029625 6.961959,87.079674 7.070118,90.581421 
	C5.672119,87.728195 5.119901,84.483047 7.537259,81.157013 
z"/>
<path fill="#3E2D7B" opacity="1.000000" stroke="none" 
	d="
M29.674948,106.292831 
	C31.742126,105.369141 33.500954,104.701065 35.612766,103.995438 
	C35.206745,106.639931 32.789467,106.468765 30.395020,106.993927 
	C29.803503,106.855537 29.585051,106.701988 29.674948,106.292831 
z"/>
<path fill="#281961" opacity="1.000000" stroke="none" 
	d="
M98.468712,91.021896 
	C98.025940,91.033943 97.601135,91.003319 97.388390,90.993851 
	C99.498878,88.394974 102.492256,90.476273 105.529907,89.932770 
	C106.153259,90.169678 106.343552,90.321671 106.279808,90.736206 
	C103.654350,91.002457 101.282913,91.006157 98.468712,91.021896 
z"/>
<path fill="#372771" opacity="1.000000" stroke="none" 
	d="
M11.847893,28.210064 
	C12.143600,29.753798 12.130936,31.432137 12.118167,33.530090 
	C10.302697,32.248833 9.132531,30.481367 11.847893,28.210064 
z"/>
<path fill="#2F1C6C" opacity="1.000000" stroke="none" 
	d="
M61.262875,47.290195 
	C63.671284,46.962765 66.399353,46.872463 69.578049,46.834663 
	C67.339058,48.759892 64.452774,48.037766 61.262875,47.290195 
z"/>
<path fill="#3E2D7B" opacity="1.000000" stroke="none" 
	d="
M38.184837,102.874649 
	C38.995968,101.645821 40.206524,100.455437 41.701061,99.114975 
	C42.115917,101.370117 41.592983,103.212173 38.184837,102.874649 
z"/>
<path fill="#41307E" opacity="1.000000" stroke="none" 
	d="
M109.174828,88.813492 
	C109.328789,87.489464 110.500954,86.167717 109.111656,84.307747 
	C111.671295,85.289680 111.796654,86.873428 109.174828,88.813492 
z"/>
<path fill="#281567" opacity="1.000000" stroke="none" 
	d="
M29.544834,105.985413 
	C29.983301,106.037224 30.010550,106.522736 30.016253,106.765907 
	C27.556505,106.800690 25.000675,107.593140 22.337229,106.072052 
	C24.398802,105.846275 26.752584,105.889938 29.544834,105.985413 
z"/>
<path fill="#2D1C69" opacity="1.000000" stroke="none" 
	d="
M46.132889,90.727882 
	C45.847588,88.614090 45.831558,86.214546 45.792297,83.364059 
	C47.689224,85.279068 47.249054,87.843506 46.132889,90.727882 
z"/>
<path fill="#44347B" opacity="1.000000" stroke="none" 
	d="
M35.086044,62.312065 
	C36.053947,62.147610 37.113689,62.292774 38.576141,62.383560 
	C37.866413,64.435165 36.598526,64.520981 35.086044,62.312065 
z"/>
<path fill="#3F2E7D" opacity="1.000000" stroke="none" 
	d="
M67.357292,33.423126 
	C69.059593,33.187302 71.099205,33.137150 73.571991,33.150520 
	C74.220291,33.332909 74.435425,33.451767 74.338852,33.767506 
	C71.916306,33.845852 69.805450,33.727322 67.357292,33.423126 
z"/>
<path fill="#2D1C61" opacity="1.000000" stroke="none" 
	d="
M29.682850,67.919540 
	C27.941080,68.202507 25.932751,68.215309 23.494318,68.218597 
	C25.037001,66.381721 27.201412,66.729179 29.682850,67.919540 
z"/>
<path fill="#3B2A78" opacity="1.000000" stroke="none" 
	d="
M74.113113,62.651443 
	C74.707855,62.171917 75.445152,61.969627 76.532639,61.611145 
	C76.669998,63.127895 76.384415,64.671150 74.113113,62.651443 
z"/>
<path fill="#342173" opacity="1.000000" stroke="none" 
	d="
M101.313782,62.924919 
	C102.747971,62.615570 104.424492,62.595406 106.522179,62.574928 
	C105.345795,64.457443 103.514320,64.369621 101.313782,62.924919 
z"/>
<path fill="#43337B" opacity="1.000000" stroke="none" 
	d="
M10.876147,75.216049 
	C10.732713,76.074112 10.233006,76.982933 9.480669,78.076225 
	C9.098281,77.020935 8.998544,75.794128 10.876147,75.216049 
z"/>
<path fill="#3C2D74" opacity="1.000000" stroke="none" 
	d="
M70.320023,39.846794 
	C70.000839,39.700359 70.026833,39.374348 70.041199,39.212051 
	C71.396164,39.063103 72.564514,39.325184 72.819534,41.325905 
	C72.110718,41.135555 71.374954,40.564388 70.320023,39.846794 
z"/>
<path fill="#35256F" opacity="1.000000" stroke="none" 
	d="
M93.371857,45.732147 
	C93.133492,44.614216 93.090363,43.228233 93.161072,41.439568 
	C94.150604,42.461250 94.209633,43.939522 93.371857,45.732147 
z"/>
<path fill="#41307E" opacity="1.000000" stroke="none" 
	d="
M106.370468,90.978912 
	C106.025780,90.998749 106.010674,90.507240 105.986824,90.262459 
	C106.733711,89.678665 107.504440,89.339661 108.577805,88.912796 
	C108.795647,90.182587 108.048447,90.868141 106.370468,90.978912 
z"/>
<path fill="#3C2D74" opacity="1.000000" stroke="none" 
	d="
M72.913155,44.742195 
	C72.727646,44.177353 72.805138,43.448029 72.898941,42.351837 
	C73.828896,42.766033 74.174408,43.604259 72.913155,44.742195 
z"/>
<path fill="#44347B" opacity="1.000000" stroke="none" 
	d="
M33.107338,60.496033 
	C33.589790,60.653946 34.150925,61.090157 34.855465,61.765945 
	C34.210613,61.866013 33.520100,61.582581 33.107338,60.496033 
z"/>
<path fill="#3E2D7B" opacity="1.000000" stroke="none" 
	d="
M36.254814,103.903564 
	C36.419281,103.608887 36.882393,103.256233 37.635559,102.815262 
	C37.468224,103.099831 37.010841,103.472710 36.254814,103.903564 
z"/>
<path fill="#342275" opacity="1.000000" stroke="none" 
	d="
M74.264793,102.917221 
	C74.445724,102.639572 74.919785,102.286598 75.692963,101.877342 
	C75.514023,102.161339 75.035973,102.501610 74.264793,102.917221 
z"/>
<path fill="#413374" opacity="1.000000" stroke="none" 
	d="
M52.583591,28.002872 
	C52.149094,28.101458 51.924889,28.098089 51.365131,28.075514 
	C51.530468,27.738195 52.031353,27.420080 52.836025,27.070074 
	C53.087414,27.350985 52.972103,27.638563 52.583591,28.002872 
z"/>
<path fill="#43337B" opacity="1.000000" stroke="none" 
	d="
M9.044994,78.309875 
	C9.100008,78.740059 8.873586,79.377449 8.390020,80.234940 
	C8.343105,79.809052 8.553332,79.163071 9.044994,78.309875 
z"/>
<path fill="#372673" opacity="1.000000" stroke="none" 
	d="
M81.850838,79.192642 
	C81.529388,78.958725 81.159500,78.359436 80.703156,77.406509 
	C81.011925,77.644341 81.407166,78.235802 81.850838,79.192642 
z"/>
<path fill="#3F3074" opacity="1.000000" stroke="none" 
	d="
M38.847195,33.096966 
	C38.524563,32.886589 38.173325,32.326427 37.733543,31.433521 
	C38.036198,31.649580 38.427391,32.198380 38.847195,33.096966 
z"/>
<path fill="#3A2874" opacity="1.000000" stroke="none" 
	d="
M74.322357,33.913090 
	C74.027153,33.964382 74.017464,33.589176 74.011314,33.401611 
	C74.426239,33.089512 74.847313,32.964973 75.591599,32.767685 
	C75.482399,33.083885 75.049980,33.472843 74.322357,33.913090 
z"/>
<path fill="#403178" opacity="1.000000" stroke="none" 
	d="
M110.144547,35.053059 
	C110.769173,34.204155 111.223663,34.958939 111.935539,35.645660 
	C111.504501,35.750797 110.925583,35.524178 110.144547,35.053059 
z"/>
<path fill="#40307D" opacity="1.000000" stroke="none" 
	d="
M17.106802,62.803772 
	C17.300501,62.517677 17.811190,62.211662 18.610569,61.813774 
	C18.407438,62.075886 17.915615,62.429867 17.106802,62.803772 
z"/>
<path fill="#2D1B6B" opacity="1.000000" stroke="none" 
	d="
M89.126907,102.995171 
	C89.345520,103.048515 89.593552,103.309738 89.929825,103.833450 
	C89.228409,104.283195 89.155174,103.779015 89.126907,102.995171 
z"/>
<path fill="#362A6A" opacity="1.000000" stroke="none" 
	d="
M113.729614,27.064461 
	C113.317444,27.113647 112.719902,26.892967 111.936249,26.410938 
	C112.348175,26.364592 112.946213,26.579594 113.729614,27.064461 
z"/>
<path fill="#362A6A" opacity="1.000000" stroke="none" 
	d="
M111.735695,25.999781 
	C111.257797,26.104507 110.507492,25.931927 109.502159,25.470131 
	C109.985855,25.361433 110.724564,25.541954 111.735695,25.999781 
z"/>
<path fill="#362770" opacity="1.000000" stroke="none" 
	d="
M39.117729,72.253822 
	C38.479321,71.921082 38.151157,71.766579 37.681110,71.374557 
	C38.188770,71.277306 38.838310,71.417587 39.743141,71.778946 
	C39.808277,72.144035 39.618122,72.288048 39.117729,72.253822 
z"/>
<path fill="#342275" opacity="1.000000" stroke="none" 
	d="
M71.120026,104.233185 
	C71.154968,104.060257 71.312241,103.991501 71.725571,103.946472 
	C71.818192,104.327095 71.571770,104.449478 71.120026,104.233185 
z"/>
<path fill="#36276F" opacity="1.000000" stroke="none" 
	d="
M42.775215,76.058578 
	C42.611534,76.066780 42.315151,75.823441 41.928459,75.297775 
	C42.106266,75.279312 42.374393,75.543175 42.775215,76.058578 
z"/>
<path fill="#342275" opacity="1.000000" stroke="none" 
	d="
M76.122665,101.811523 
	C76.144341,101.666077 76.414932,101.327339 77.038399,100.901947 
	C77.051376,101.082932 76.711487,101.350578 76.122665,101.811523 
z"/>
<path fill="#342275" opacity="1.000000" stroke="none" 
	d="
M72.771339,103.768738 
	C72.795647,103.611572 73.092010,103.340858 73.694061,103.024918 
	C73.680962,103.204857 73.362175,103.430023 72.771339,103.768738 
z"/>
<path fill="#3E2D7B" opacity="1.000000" stroke="none" 
	d="
M43.025482,97.754456 
	C42.956650,97.561180 43.136848,97.153557 43.604725,96.566788 
	C43.686443,96.771805 43.480480,97.155952 43.025482,97.754456 
z"/>
<path fill="#3E2D7B" opacity="1.000000" stroke="none" 
	d="
M42.166035,98.827980 
	C42.120865,98.671654 42.278465,98.347519 42.683250,97.897278 
	C42.743229,98.067497 42.556015,98.363831 42.166035,98.827980 
z"/>
<path fill="#3F3074" opacity="1.000000" stroke="none" 
	d="
M37.736931,31.064587 
	C37.567123,31.071053 37.292988,30.819405 36.943748,30.289185 
	C37.123299,30.275900 37.377949,30.541185 37.736931,31.064587 
z"/>
<path fill="#403178" opacity="1.000000" stroke="none" 
	d="
M113.211197,37.128212 
	C113.375763,37.053894 113.722061,37.178936 114.218483,37.541550 
	C114.043381,37.628601 113.718147,37.478085 113.211197,37.128212 
z"/>
<path fill="#32216C" opacity="1.000000" stroke="none" 
	d="
M12.972614,39.227024 
	C13.015469,39.408344 12.828612,39.842941 12.327775,40.459373 
	C12.256831,40.254242 12.499868,39.867271 12.972614,39.227024 
z"/>
<path fill="#3C2D74" opacity="1.000000" stroke="none" 
	d="
M70.623901,46.806190 
	C70.637421,46.628658 70.961090,46.315010 71.614456,45.896774 
	C71.607445,46.084820 71.270744,46.377445 70.623901,46.806190 
z"/>
<path fill="#3B2C6B" opacity="1.000000" stroke="none" 
	d="
M118.057556,56.820496 
	C118.013779,56.651497 118.194550,56.302868 118.641167,55.819981 
	C118.698715,56.004105 118.490402,56.322483 118.057556,56.820496 
z"/>
<path fill="#3B2C6B" opacity="1.000000" stroke="none" 
	d="
M117.070602,57.833881 
	C117.047501,57.674263 117.248947,57.357121 117.719246,56.935490 
	C117.757111,57.112789 117.526131,57.394577 117.070602,57.833881 
z"/>
<path fill="#3B2C6B" opacity="1.000000" stroke="none" 
	d="
M116.038033,58.756638 
	C116.023186,58.597755 116.241348,58.309986 116.728058,57.935505 
	C116.754753,58.108444 116.512901,58.368092 116.038033,58.756638 
z"/>
<path fill="#473781" opacity="1.000000" stroke="none" 
	d="
M92.879967,68.696495 
	C92.991203,68.790352 92.514893,68.925667 92.270569,68.886719 
	C92.218674,68.573349 92.466164,68.491646 92.879967,68.696495 
z"/>
<path fill="#3A2874" opacity="1.000000" stroke="none" 
	d="
M75.954987,32.772675 
	C75.936974,32.608124 76.164589,32.290329 76.671021,31.858139 
	C76.700104,32.035641 76.450356,32.327538 75.954987,32.772675 
z"/>
<path fill="#3A2874" opacity="1.000000" stroke="none" 
	d="
M76.910950,31.824665 
	C76.764137,31.881475 76.888695,31.405060 77.030457,31.203407 
	C77.394554,31.316872 77.356407,31.572239 76.910950,31.824665 
z"/>
<path fill="#473781" opacity="1.000000" stroke="none" 
	d="
M113.656288,70.050156 
	C113.468132,70.112984 113.158546,69.935638 112.738495,69.508255 
	C112.930305,69.442139 113.232582,69.626060 113.656288,70.050156 
z"/>
<path fill="#3F3074" opacity="1.000000" stroke="none" 
	d="
M34.252457,27.830006 
	C34.056423,27.649246 34.134464,27.380814 34.152794,27.243389 
	C34.430134,27.267742 34.629467,27.484444 34.864258,27.959860 
	C34.789093,28.112690 34.618790,28.061726 34.252457,27.830006 
z"/>
<path fill="#36276F" opacity="1.000000" stroke="none" 
	d="
M38.910706,72.328949 
	C39.005630,72.057076 39.203773,72.038582 39.700172,72.010056 
	C39.996880,72.180153 39.995331,72.360283 39.974911,72.810898 
	C39.642002,72.915024 39.327961,72.748672 38.910706,72.328949 
z"/>
<path fill="#43337B" opacity="1.000000" stroke="none" 
	d="
M12.974115,73.217010 
	C13.000625,73.380142 12.792355,73.683754 12.324852,74.100830 
	C12.290192,73.928688 12.514764,73.643089 12.974115,73.217010 
z"/>
<path fill="#36276F" opacity="1.000000" stroke="none" 
	d="
M40.838799,73.873245 
	C40.700909,73.883324 40.398384,73.693443 39.994461,73.248581 
	C40.153431,73.220146 40.413795,73.446709 40.838799,73.873245 
z"/>
<path fill="#43337B" opacity="1.000000" stroke="none" 
	d="
M11.968760,74.223297 
	C12.015923,74.399933 11.829659,74.717934 11.383377,75.145874 
	C11.327350,74.958771 11.531341,74.661705 11.968760,74.223297 
z"/>
<path fill="#36276F" opacity="1.000000" stroke="none" 
	d="
M41.837608,74.946236 
	C41.691208,74.952904 41.395786,74.741409 41.015511,74.264191 
	C41.183304,74.241676 41.435944,74.484871 41.837608,74.946236 
z"/>
<path fill="#3F3074" opacity="1.000000" stroke="none" 
	d="
M36.842979,29.915123 
	C36.689899,29.932333 36.394897,29.727795 36.006695,29.264374 
	C36.176018,29.234787 36.438534,29.464083 36.842979,29.915123 
z"/>
<path fill="#36276F" opacity="1.000000" stroke="none" 
	d="
M43.232025,76.846054 
	C43.163353,76.983475 42.847927,76.625893 42.777264,76.397942 
	C43.084217,76.200493 43.282249,76.380043 43.232025,76.846054 
z"/>
<path fill="#372673" opacity="1.000000" stroke="none" 
	d="
M80.736389,77.051788 
	C80.560974,77.043045 80.231300,76.739014 79.796722,76.089134 
	C79.988594,76.081024 80.285370,76.418770 80.736389,77.051788 
z"/>
<path fill="#372673" opacity="1.000000" stroke="none" 
	d="
M82.801910,81.414520 
	C82.607193,81.390404 82.318527,81.049599 82.015762,80.355072 
	C82.237099,80.366844 82.472534,80.732338 82.801910,81.414520 
z"/>
<path fill="#432E8E" opacity="1.000000" stroke="none" 
	d="
M29.603321,76.387199 
	C35.226532,77.658691 37.515881,81.590927 37.717609,86.488945 
	C37.927380,91.582260 35.781525,95.768341 30.341991,97.855133 
	C28.033115,97.120773 25.994841,97.671356 23.620350,97.494255 
	C22.989180,97.468346 22.737249,97.446465 22.120453,97.320862 
	C21.755590,97.217133 21.877342,97.206650 21.873745,97.267639 
	C20.420431,95.650002 19.051046,93.896484 17.034624,92.318832 
	C16.733076,92.172630 16.821701,92.153717 16.822460,92.199020 
	C15.991598,89.091469 15.990666,85.914276 16.701477,82.264954 
	C16.858686,81.809067 16.882513,81.923248 16.824577,81.929924 
	C17.409748,81.640755 17.481167,81.012672 17.797726,80.173752 
	C17.956141,79.912514 17.979649,79.976662 17.945507,79.977814 
	C18.198311,79.774117 18.463337,79.544266 18.831966,79.055222 
	C18.961105,78.825157 18.947117,78.926620 18.896965,78.916260 
	C19.775509,78.435745 20.777914,78.096916 21.753693,77.126701 
	C21.940014,76.874672 21.953259,76.948975 21.917547,76.936775 
	C22.311663,76.658432 22.777300,76.513390 23.657444,76.505707 
	C25.766981,76.486931 27.504169,76.530167 29.603321,76.387199 
z"/>
<path fill="#3A2A70" opacity="1.000000" stroke="none" 
	d="
M16.583881,82.053909 
	C16.880655,84.969643 16.902622,88.130219 16.873905,91.767563 
	C14.865102,89.021500 15.436553,85.667915 16.583881,82.053909 
z"/>
<path fill="#3E2D73" opacity="1.000000" stroke="none" 
	d="
M16.800480,92.513000 
	C19.743322,92.145691 20.723600,94.380005 21.781872,96.977203 
	C19.372984,96.764328 17.963272,94.984520 16.800480,92.513000 
z"/>
<path fill="#2F1F6C" opacity="1.000000" stroke="none" 
	d="
M22.794655,97.210098 
	C25.127119,97.136299 27.244516,97.272026 29.678467,97.631241 
	C27.970139,98.452110 25.924610,98.483963 23.438625,97.956329 
	C22.869282,97.695923 22.724434,97.557770 22.794655,97.210098 
z"/>
<path fill="#2A1C5C" opacity="1.000000" stroke="none" 
	d="
M29.556206,76.168648 
	C28.353971,77.347893 26.546251,76.934715 24.416832,76.986923 
	C23.805595,76.842247 23.580017,76.708199 23.688568,76.366119 
	C25.730639,76.116554 27.438576,76.075027 29.556206,76.168648 
z"/>
<path fill="#3E2C76" opacity="1.000000" stroke="none" 
	d="
M21.615648,76.897758 
	C21.788080,78.300224 20.923815,78.899925 19.205154,78.915207 
	C19.372097,77.887657 20.253635,77.308136 21.615648,76.897758 
z"/>
<path fill="#3E2C76" opacity="1.000000" stroke="none" 
	d="
M17.691204,80.071274 
	C17.726557,80.467636 17.496971,81.022751 17.017014,81.757233 
	C16.986513,81.367744 17.206388,80.798897 17.691204,80.071274 
z"/>
<path fill="#3E2C76" opacity="1.000000" stroke="none" 
	d="
M23.722630,76.119171 
	C24.022699,76.158089 24.020304,76.567780 24.025740,76.772034 
	C23.553764,76.971619 23.076351,76.966957 22.240387,76.943428 
	C22.395409,76.643127 22.908985,76.361687 23.722630,76.119171 
z"/>
<path fill="#3E2D73" opacity="1.000000" stroke="none" 
	d="
M22.693676,97.040154 
	C23.009724,97.000580 23.012659,97.417320 23.013395,97.625702 
	C22.684834,97.777344 22.355536,97.720612 21.890913,97.440506 
	C21.962936,97.171333 22.170280,97.125526 22.693676,97.040154 
z"/>
<path fill="#3E2C76" opacity="1.000000" stroke="none" 
	d="
M18.699093,78.925446 
	C18.753592,79.106995 18.546080,79.388840 18.124966,79.824814 
	C18.086605,79.661217 18.261843,79.343468 18.699093,78.925446 
z"/>
<path fill="#422D8B" opacity="1.000000" stroke="none" 
	d="
M71.198822,95.032539 
	C70.339973,96.506935 69.043922,96.820206 67.466179,97.251083 
	C64.631439,97.203171 62.039059,98.303558 59.575317,96.294235 
	C59.487690,91.528145 59.497799,87.212639 59.502823,82.897171 
	C59.509754,76.945587 60.031475,76.494179 66.127853,77.141281 
	C66.951729,77.228722 67.741646,77.529785 69.045204,77.684326 
	C76.073097,83.921928 76.874664,88.394707 72.135605,93.641403 
	C71.725266,94.227386 71.499779,94.497475 71.198822,95.032539 
z"/>
<path fill="#493C7A" opacity="1.000000" stroke="none" 
	d="
M69.235886,77.495232 
	C59.990021,78.321136 59.988590,78.321136 59.991238,88.055794 
	C59.991959,90.702972 60.004135,93.350143 60.019699,96.460953 
	C59.904594,97.108818 59.780838,97.293045 59.422218,97.241341 
	C59.133915,91.697670 59.480923,86.346535 58.911968,81.094635 
	C58.366829,76.062576 60.793858,75.514999 64.619553,76.142670 
	C66.083626,76.382866 67.511658,76.842720 69.235886,77.495232 
z"/>
<path fill="#3E3367" opacity="1.000000" stroke="none" 
	d="
M59.286133,97.394043 
	C59.187351,97.005417 59.608738,96.978020 59.818542,96.951302 
	C62.213902,96.921509 64.399452,96.918427 66.861374,97.102127 
	C64.621445,98.520622 61.995724,98.034630 59.286133,97.394043 
z"/>
<path fill="#44337B" opacity="1.000000" stroke="none" 
	d="
M71.387726,95.158089 
	C71.260895,94.964500 71.422325,94.651428 71.779221,94.157806 
	C71.875107,94.331047 71.775551,94.684830 71.387726,95.158089 
z"/>
<path fill="#432B92" opacity="1.000000" stroke="none" 
	d="
M27.650768,33.310390 
	C28.762878,33.134724 28.999006,33.595215 29.076328,34.514275 
	C30.517958,36.798756 29.722075,38.635876 28.426044,40.794624 
	C26.526020,41.816998 24.809404,41.374943 22.714363,41.449455 
	C19.942764,39.450420 20.438686,37.037552 21.453903,34.251160 
	C23.499016,33.075150 25.425009,33.718884 27.650768,33.310390 
z"/>
<path fill="#443481" opacity="1.000000" stroke="none" 
	d="
M21.675327,33.906326 
	C22.009260,36.094471 22.022074,38.149448 22.026157,40.549606 
	C21.281353,41.496948 20.806517,40.995514 20.051344,40.301022 
	C19.411848,40.107811 19.163879,39.942158 18.970989,39.379417 
	C18.919544,38.292854 18.924582,37.436298 18.896538,36.153282 
	C18.846773,35.416309 18.963953,35.169338 19.422428,34.942810 
	C20.277025,34.634987 20.668509,33.978901 21.675327,33.906326 
z"/>
<path fill="#443481" opacity="1.000000" stroke="none" 
	d="
M27.627598,41.212803 
	C28.284508,39.193661 28.650253,37.392879 29.053612,35.197792 
	C32.880878,37.320724 30.952669,39.495819 28.333380,41.705772 
	C27.768969,41.651154 27.552702,41.541161 27.627598,41.212803 
z"/>
<path fill="#271A59" opacity="1.000000" stroke="none" 
	d="
M27.499577,40.981293 
	C27.918764,40.994442 27.924252,41.380234 27.954742,41.570694 
	C25.276310,41.735825 22.408869,43.261463 19.853081,40.522377 
	C20.329962,40.311157 20.888546,40.515926 21.732279,40.807739 
	C23.705082,40.919243 25.392736,40.943695 27.499577,40.981293 
z"/>
<path fill="#2D1A65" opacity="1.000000" stroke="none" 
	d="
M22.391815,34.021980 
	C21.405964,34.258915 20.815481,34.478336 19.927429,34.798737 
	C21.210123,30.706636 24.678427,33.689369 27.592426,33.040710 
	C26.437943,34.429253 24.551214,33.835037 22.391815,34.021980 
z"/>
<path fill="#6A618F" opacity="1.000000" stroke="none" 
	d="
M60.164070,37.912201 
	C61.579609,39.241764 63.629093,38.834110 65.694565,39.527374 
	C64.003571,39.387581 61.341408,41.687447 60.164070,37.912201 
z"/>
<path fill="#6A618F" opacity="1.000000" stroke="none" 
	d="
M60.781624,33.237167 
	C60.937401,33.747601 60.786594,34.277054 60.452122,35.177567 
	C59.924122,34.747246 59.894775,33.974251 60.781624,33.237167 
z"/>
</svg>